<svg width="20" height="14" viewBox="0 0 20 14" fill="none" xmlns="http://www.w3.org/2000/svg">
<path fill-rule="evenodd" clip-rule="evenodd" d="M7.11989 1.13035C7.20138 1.21163 7.26602 1.30819 7.31014 1.4145C7.35425 1.5208 7.37695 1.63476 7.37695 1.74985C7.37695 1.86495 7.35425 1.97891 7.31014 2.08521C7.26602 2.19152 7.20138 2.28808 7.11989 2.36936L2.48764 6.99986L7.11989 11.6304C7.28419 11.7947 7.37649 12.0175 7.37649 12.2499C7.37649 12.4822 7.28419 12.7051 7.11989 12.8694C6.95559 13.0337 6.73275 13.126 6.50039 13.126C6.26803 13.126 6.04519 13.0337 5.88089 12.8694L0.630888 7.61936C0.549403 7.53808 0.484753 7.44152 0.440642 7.33521C0.396531 7.22891 0.373825 7.11495 0.373825 6.99986C0.373825 6.88476 0.396531 6.7708 0.440642 6.6645C0.484753 6.55819 0.549403 6.46164 0.630888 6.38036L5.88089 1.13035C5.96217 1.04887 6.05873 0.984219 6.16503 0.940107C6.27134 0.895996 6.3853 0.873291 6.50039 0.873291C6.61548 0.873291 6.72944 0.895996 6.83575 0.940107C6.94205 0.984219 7.03861 1.04887 7.11989 1.13035V1.13035Z" fill="white"/>
<path fill-rule="evenodd" clip-rule="evenodd" d="M19.625 7C19.625 7.23206 19.5328 7.45462 19.3687 7.61872C19.2046 7.78281 18.9821 7.875 18.75 7.875L3 7.875C2.76794 7.875 2.54538 7.78281 2.38128 7.61872C2.21719 7.45462 2.125 7.23206 2.125 7C2.125 6.76793 2.21719 6.54538 2.38128 6.38128C2.54538 6.21719 2.76794 6.125 3 6.125L18.75 6.125C18.9821 6.125 19.2046 6.21719 19.3687 6.38128C19.5328 6.54538 19.625 6.76794 19.625 7V7Z" fill="white"/>
</svg>
