<svg width="25" height="23" viewBox="0 0 25 23" fill="none" xmlns="http://www.w3.org/2000/svg">
<path d="M7.99182 14.883H7.99296C7.9939 14.883 7.99485 14.8828 7.9958 14.8828H21.1712C21.4956 14.8828 21.7808 14.6625 21.8699 14.3431L24.7767 3.92516C24.8394 3.70056 24.7955 3.4591 24.6583 3.27267C24.5209 3.08625 24.3061 2.97657 24.078 2.97657H6.31587L5.79639 0.582717C5.72239 0.242234 5.42755 0 5.08691 0H0.726701C0.325312 0 0 0.33312 0 0.744142C0 1.15516 0.325312 1.48828 0.726701 1.48828H4.50403C4.59601 1.91248 6.98996 12.944 7.12773 13.5787C6.35542 13.9224 5.81361 14.711 5.81361 15.627C5.81361 16.8579 6.79163 17.8594 7.99371 17.8594H21.1712C21.5726 17.8594 21.8979 17.5263 21.8979 17.1153C21.8979 16.7042 21.5726 16.3711 21.1712 16.3711H7.99371C7.59308 16.3711 7.26701 16.0372 7.26701 15.627C7.26701 15.2173 7.59195 14.884 7.99182 14.883ZM23.1146 4.46485L20.623 13.3946H8.57659L6.63872 4.46485H23.1146Z" fill="#3A3A3C"/>
<path d="M7.2666 20.0917C7.2666 21.3226 8.24462 22.3241 9.44671 22.3241C10.6488 22.3241 11.6268 21.3226 11.6268 20.0917C11.6268 18.8607 10.6488 17.8593 9.44671 17.8593C8.24462 17.8593 7.2666 18.8607 7.2666 20.0917ZM9.44671 19.3475C9.84734 19.3475 10.1734 19.6814 10.1734 20.0917C10.1734 20.5019 9.84734 20.8358 9.44671 20.8358C9.04607 20.8358 8.72 20.5019 8.72 20.0917C8.72 19.6814 9.04607 19.3475 9.44671 19.3475Z" fill="#3A3A3C"/>
<path d="M17.5381 20.0917C17.5381 21.3226 18.5161 22.3241 19.7182 22.3241C20.9203 22.3241 21.8983 21.3226 21.8983 20.0917C21.8983 18.8607 20.9203 17.8593 19.7182 17.8593C18.5161 17.8593 17.5381 18.8607 17.5381 20.0917ZM19.7182 19.3475C20.1188 19.3475 20.4449 19.6814 20.4449 20.0917C20.4449 20.5019 20.1188 20.8358 19.7182 20.8358C19.3176 20.8358 18.9915 20.5019 18.9915 20.0917C18.9915 19.6814 19.3176 19.3475 19.7182 19.3475Z" fill="#3A3A3C"/>
</svg>
