<svg width="20" height="20" viewBox="0 0 20 20" fill="none" xmlns="http://www.w3.org/2000/svg">
<path d="M0 4C0 1.79086 1.79086 0 4 0H16C18.2091 0 20 1.79086 20 4V16C20 18.2091 18.2091 20 16 20H4C1.79086 20 0 18.2091 0 16V4Z" fill="#006B38"/>
<path fill-rule="evenodd" clip-rule="evenodd" d="M14.7524 6.91146C14.83 6.98884 14.8915 7.08075 14.9335 7.18195C14.9755 7.28315 14.9971 7.39163 14.9971 7.5012C14.9971 7.61076 14.9755 7.71925 14.9335 7.82044C14.8915 7.92164 14.83 8.01356 14.7524 8.09093L9.75466 13.0887C9.67729 13.1663 9.58537 13.2278 9.48418 13.2698C9.38298 13.3118 9.27449 13.3334 9.16493 13.3334C9.05537 13.3334 8.94688 13.3118 8.84568 13.2698C8.74448 13.2278 8.65257 13.1663 8.57519 13.0887L6.07631 10.5898C5.9199 10.4334 5.83203 10.2213 5.83203 10.0001C5.83203 9.77889 5.9199 9.56675 6.07631 9.41034C6.23272 9.25394 6.44485 9.16607 6.66604 9.16607C6.88724 9.16607 7.09937 9.25394 7.25578 9.41034L9.16493 11.3212L13.573 6.91146C13.6503 6.83389 13.7423 6.77235 13.8434 6.73035C13.9446 6.68836 14.0531 6.66675 14.1627 6.66675C14.2723 6.66675 14.3807 6.68836 14.4819 6.73035C14.5831 6.77235 14.6751 6.83389 14.7524 6.91146Z" fill="white"/>
</svg>
