<svg width="11" height="8" viewBox="0 0 11 8" fill="none" xmlns="http://www.w3.org/2000/svg">
<path fill-rule="evenodd" clip-rule="evenodd" d="M10.7045 0.293656C10.7976 0.386506 10.8714 0.496808 10.9218 0.618244C10.9722 0.73968 10.9981 0.869864 10.9981 1.00134C10.9981 1.13282 10.9722 1.263 10.9218 1.38444C10.8714 1.50587 10.7976 1.61617 10.7045 1.70902L4.70716 7.70634C4.61431 7.79943 4.50401 7.87328 4.38257 7.92367C4.26114 7.97406 4.13095 8 3.99948 8C3.868 8 3.73782 7.97406 3.61638 7.92367C3.49494 7.87328 3.38464 7.79943 3.29179 7.70634L0.293132 4.70768C0.105443 4.51999 0 4.26543 0 4C0 3.73457 0.105443 3.48001 0.293132 3.29232C0.480822 3.10463 0.735384 2.99918 1.00082 2.99918C1.26625 2.99918 1.52081 3.10463 1.7085 3.29232L3.99948 5.58529L9.28911 0.293656C9.38196 0.200571 9.49227 0.126718 9.6137 0.0763276C9.73514 0.0259372 9.86532 0 9.9968 0C10.1283 0 10.2585 0.0259372 10.3799 0.0763276C10.5013 0.126718 10.6116 0.200571 10.7045 0.293656Z" fill="white"/>
</svg>
