<svg width="14" height="14" viewBox="0 0 14 14" fill="none" xmlns="http://www.w3.org/2000/svg">
<path d="M7.94031 6.99996L13.467 1.47329C13.5762 1.34576 13.6333 1.18171 13.6268 1.01393C13.6203 0.846141 13.5507 0.686982 13.432 0.568252C13.3133 0.449523 13.1541 0.379967 12.9863 0.373487C12.8186 0.367006 12.6545 0.424077 12.527 0.533294L7.00031 6.05996L1.47364 0.526628C1.34811 0.401092 1.17784 0.330566 1.00031 0.330566C0.822773 0.330566 0.65251 0.401092 0.526974 0.526628C0.401438 0.652163 0.330913 0.822427 0.330913 0.999961C0.330913 1.1775 0.401438 1.34776 0.526974 1.47329L6.06031 6.99996L0.526974 12.5266C0.457186 12.5864 0.400506 12.6599 0.360491 12.7426C0.320475 12.8254 0.297988 12.9154 0.294442 13.0073C0.290896 13.0991 0.306366 13.1906 0.339882 13.2762C0.373399 13.3617 0.424238 13.4394 0.489207 13.5044C0.554177 13.5694 0.631876 13.6202 0.717426 13.6537C0.802976 13.6872 0.894531 13.7027 0.986343 13.6992C1.07816 13.6956 1.16824 13.6731 1.25095 13.6331C1.33366 13.5931 1.40721 13.5364 1.46697 13.4666L7.00031 7.93996L12.527 13.4666C12.6545 13.5758 12.8186 13.6329 12.9863 13.6264C13.1541 13.62 13.3133 13.5504 13.432 13.4317C13.5507 13.3129 13.6203 13.1538 13.6268 12.986C13.6333 12.8182 13.5762 12.6542 13.467 12.5266L7.94031 6.99996Z" fill="#202123"/>
</svg>
