<svg width="12" height="12" viewBox="0 0 12 12" fill="none" xmlns="http://www.w3.org/2000/svg">
<path d="M6.25376 5.99996L11.0726 1.17556C11.106 1.14175 11.1248 1.09609 11.1248 1.04851C11.1248 1.00094 11.106 0.955279 11.0726 0.921464C11.0383 0.888757 10.9927 0.87054 10.9453 0.870606C10.8979 0.870671 10.8523 0.889013 10.8181 0.921815L6.00001 5.74586L1.18121 0.921464C1.14689 0.888972 1.10143 0.870863 1.05416 0.870863C1.0069 0.870863 0.961436 0.888972 0.927115 0.921464C0.893666 0.95522 0.874899 1.00082 0.874899 1.04834C0.874899 1.09586 0.893666 1.14146 0.927115 1.17521L5.74626 5.99996L0.927465 10.8244C0.909782 10.8408 0.895593 10.8606 0.885745 10.8826C0.875897 10.9047 0.870592 10.9285 0.870148 10.9526C0.869703 10.9767 0.874129 11.0007 0.883159 11.0231C0.89219 11.0455 0.90564 11.0658 0.922706 11.0829C0.939772 11.0999 0.960104 11.1134 0.982486 11.1224C1.00487 11.1315 1.02884 11.1359 1.05297 11.1354C1.0771 11.135 1.1009 11.1297 1.12293 11.1198C1.14497 11.11 1.16479 11.0958 1.18121 11.0781L6.00001 6.25406L10.8185 11.0785C10.8351 11.0951 10.8549 11.1084 10.8767 11.1174C10.8985 11.1265 10.9218 11.1311 10.9454 11.1311C10.969 11.1312 10.9923 11.1265 11.0141 11.1175C11.0359 11.1085 11.0557 11.0953 11.0724 11.0786C11.0891 11.062 11.1023 11.0422 11.1113 11.0204C11.1204 10.9986 11.125 10.9753 11.1251 10.9517C11.1251 10.9281 11.1205 10.9048 11.1114 10.883C11.1024 10.8612 11.0892 10.8414 11.0726 10.8247L6.25376 5.99996Z" fill="#FF4A4A"/>
</svg>
