<svg width="24" height="24" viewBox="0 0 24 24" fill="none" xmlns="http://www.w3.org/2000/svg">
<path d="M6 1.5L6 4.575C4.275 4.95 3 6.45 3 8.25C3 10.05 4.275 11.55 6 11.925L6 22.5L7.5 22.5L7.5 11.925C9.225 11.55 10.5 10.05 10.5 8.25C10.5 6.45 9.225 4.95 7.5 4.575L7.5 1.5L6 1.5ZM9 8.25C9 9.525 8.025 10.5 6.75 10.5C5.475 10.5 4.5 9.525 4.5 8.25C4.5 6.975 5.475 6 6.75 6C8.025 6 9 6.975 9 8.25Z" fill="#3A3A3C"/>
<path d="M18 22.5L18 19.425C19.725 19.05 21 17.55 21 15.75C21 13.95 19.725 12.45 18 12.075L18 1.5L16.5 1.5L16.5 12.075C14.775 12.45 13.5 13.95 13.5 15.75C13.5 17.55 14.775 19.05 16.5 19.425L16.5 22.5L18 22.5ZM15 15.75C15 14.475 15.975 13.5 17.25 13.5C18.525 13.5 19.5 14.475 19.5 15.75C19.5 17.025 18.525 18 17.25 18C15.975 18 15 17.025 15 15.75Z" fill="#3A3A3C"/>
</svg>
