<svg width="31" height="28" viewBox="0 0 31 28" fill="none" xmlns="http://www.w3.org/2000/svg">
<path d="M15.5 28C15.0587 28 14.6332 27.8377 14.3016 27.5428C13.0493 26.4311 11.8419 25.3864 10.7766 24.4648L10.7712 24.46C7.64806 21.758 4.95113 19.4246 3.07465 17.126C0.977028 14.5563 0 12.1199 0 9.45827C0 6.87226 0.873436 4.4865 2.45924 2.74016C4.06397 0.973176 6.26589 0 8.6601 0C10.4495 0 12.0883 0.574349 13.5308 1.70696C14.2588 2.27867 14.9187 2.97836 15.5 3.7945C16.0816 2.97836 16.7412 2.27867 17.4694 1.70696C18.9119 0.574349 20.5507 0 22.3401 0C24.7341 0 26.9363 0.973176 28.541 2.74016C30.1268 4.4865 31 6.87226 31 9.45827C31 12.1199 30.0232 14.5563 27.9256 17.1258C26.0491 19.4246 23.3524 21.7578 20.2298 24.4595C19.1626 25.3825 17.9533 26.4289 16.6982 27.5433C16.3668 27.8377 15.9411 28 15.5 28ZM8.6601 1.84358C6.77912 1.84358 5.05117 2.6057 3.79411 3.98971C2.51837 5.39461 1.8157 7.33664 1.8157 9.45827C1.8157 11.6968 2.63521 13.6989 4.47266 15.9497C6.24863 18.1254 8.89022 20.4108 11.9488 23.057L11.9545 23.0618C13.0237 23.987 14.2358 25.0358 15.4974 26.1557C16.7665 25.0336 17.9805 23.9832 19.0519 23.0566C22.1103 20.4103 24.7516 18.1254 26.5276 15.9497C28.3648 13.6989 29.1843 11.6968 29.1843 9.45827C29.1843 7.33664 28.4816 5.39461 27.2059 3.98971C25.9491 2.6057 24.2209 1.84358 22.3401 1.84358C20.9622 1.84358 19.6971 2.28827 18.5801 3.16516C17.5846 3.94697 16.8912 4.93527 16.4846 5.6268C16.2755 5.9824 15.9075 6.19466 15.5 6.19466C15.0925 6.19466 14.7245 5.9824 14.5154 5.6268C14.1091 4.93527 13.4156 3.94697 12.4199 3.16516C11.3029 2.28827 10.0378 1.84358 8.6601 1.84358Z" fill="#3A3A3C"/>
</svg>
