<svg width="24" height="22" viewBox="0 0 24 22" fill="none" xmlns="http://www.w3.org/2000/svg">
<path d="M12 22C11.6583 22 11.3289 21.8725 11.0722 21.6408C10.1027 20.7673 9.16791 19.9464 8.3432 19.2224L8.33899 19.2186C5.92108 17.0956 3.83313 15.2622 2.38037 13.4562C0.756409 11.4371 0 9.52279 0 7.4315C0 5.39963 0.676208 3.52511 1.90393 2.15299C3.1463 0.764638 4.85101 0 6.70459 0C8.08997 0 9.3587 0.451274 10.4755 1.34118C11.0391 1.79038 11.5499 2.34014 12 2.98139C12.4503 2.34014 12.9609 1.79038 13.5247 1.34118C14.6415 0.451274 15.9102 0 17.2956 0C19.149 0 20.8539 0.764638 22.0963 2.15299C23.324 3.52511 24 5.39963 24 7.4315C24 9.52279 23.2438 11.4371 21.6198 13.456C20.1671 15.2622 18.0793 17.0954 15.6617 19.2182C14.8356 19.9434 13.8994 20.7656 12.9276 21.6412C12.6711 21.8725 12.3415 22 12 22ZM6.70459 1.44853C5.24835 1.44853 3.91058 2.04734 2.93738 3.13477C1.94971 4.23862 1.4057 5.7645 1.4057 7.4315C1.4057 9.19038 2.04016 10.7634 3.46271 12.5319C4.83765 14.2414 6.88275 16.037 9.25067 18.1162L9.25507 18.12C10.0829 18.8469 11.0213 19.671 11.998 20.5509C12.9805 19.6693 13.9204 18.8439 14.7499 18.1159C17.1176 16.0367 19.1625 14.2414 20.5375 12.5319C21.9598 10.7634 22.5943 9.19038 22.5943 7.4315C22.5943 5.7645 22.0503 4.23862 21.0626 3.13477C20.0896 2.04734 18.7516 1.44853 17.2956 1.44853C16.2288 1.44853 15.2494 1.79793 14.3846 2.48691C13.6139 3.10119 13.077 3.87771 12.7623 4.42105C12.6004 4.70046 12.3155 4.86724 12 4.86724C11.6845 4.86724 11.3996 4.70046 11.2377 4.42105C10.9232 3.87771 10.3863 3.10119 9.61542 2.48691C8.75061 1.79793 7.77118 1.44853 6.70459 1.44853Z" fill="#3A3A3C"/>
</svg>
