<svg width="16" height="16" viewBox="0 0 16 16" fill="none" xmlns="http://www.w3.org/2000/svg">
<path d="M14.1196 4.13018C11.9596 0.800183 7.54956 -0.189817 4.12956 1.88018C0.799557 3.95018 -0.280442 8.45018 1.87956 11.7802L2.05956 12.0502L1.33956 14.7502L4.03956 14.0302L4.30956 14.2102C5.47956 14.8402 6.73956 15.2002 7.99956 15.2002C9.34956 15.2002 10.6996 14.8402 11.8696 14.1202C15.1996 11.9602 16.1896 7.55018 14.1196 4.13018ZM12.2296 11.0602C11.8696 11.6002 11.4196 11.9602 10.7896 12.0502C10.4296 12.0502 9.97956 12.2302 8.17956 11.5102C6.64956 10.7902 5.38956 9.62018 4.48956 8.27018C3.94956 7.64018 3.67956 6.83018 3.58956 6.02018C3.58956 5.30018 3.85956 4.67018 4.30956 4.22018C4.48956 4.04018 4.66956 3.95018 4.84956 3.95018H5.29956C5.47956 3.95018 5.65956 3.95018 5.74956 4.31018C5.92956 4.76018 6.37956 5.84018 6.37956 5.93018C6.46956 6.02018 6.46956 6.20018 6.37956 6.29018C6.46956 6.47018 6.37956 6.65018 6.28956 6.74018C6.19956 6.83018 6.10956 7.01018 6.01956 7.10018C5.83956 7.19018 5.74956 7.37018 5.83956 7.55018C6.19956 8.09018 6.64956 8.63018 7.09956 9.08018C7.63956 9.53018 8.17956 9.89018 8.80956 10.1602C8.98956 10.2502 9.16956 10.2502 9.25956 10.0702C9.34956 9.89018 9.79956 9.44018 9.97956 9.26018C10.1596 9.08018 10.2496 9.08018 10.4296 9.17018L11.8696 9.89018C12.0496 9.98018 12.2296 10.0702 12.3196 10.1602C12.4096 10.4302 12.4096 10.7902 12.2296 11.0602Z" fill="#3A3A3C"/>
</svg>
