<svg width="19" height="19" viewBox="0 0 19 19" fill="none" xmlns="http://www.w3.org/2000/svg">
<path d="M12.9697 6.5498H12.0995C11.9103 6.5498 11.7303 6.64072 11.6189 6.79658L8.70214 10.8415L7.38105 9.0083C7.26972 8.8543 7.09159 8.76152 6.90048 8.76152H6.03026C5.90966 8.76152 5.83915 8.89883 5.90966 8.99717L8.22158 12.2034C8.27619 12.2796 8.34819 12.3418 8.4316 12.3846C8.51502 12.4275 8.60744 12.4498 8.70122 12.4498C8.79499 12.4498 8.88742 12.4275 8.97083 12.3846C9.05424 12.3418 9.12624 12.2796 9.18085 12.2034L13.0885 6.78545C13.1608 6.68711 13.0903 6.5498 12.9697 6.5498Z" fill="#006B38"/>
<path d="M9.5 1.1875C4.90957 1.1875 1.1875 4.90957 1.1875 9.5C1.1875 14.0904 4.90957 17.8125 9.5 17.8125C14.0904 17.8125 17.8125 14.0904 17.8125 9.5C17.8125 4.90957 14.0904 1.1875 9.5 1.1875ZM9.5 16.4023C5.68887 16.4023 2.59766 13.3111 2.59766 9.5C2.59766 5.68887 5.68887 2.59766 9.5 2.59766C13.3111 2.59766 16.4023 5.68887 16.4023 9.5C16.4023 13.3111 13.3111 16.4023 9.5 16.4023Z" fill="#006B38"/>
</svg>
