<svg width="19" height="19" viewBox="0 0 19 19" fill="none" xmlns="http://www.w3.org/2000/svg">
<path d="M12.7174 6.58325C12.7174 6.50161 12.6506 6.43481 12.5689 6.43481L11.3443 6.44038L9.49997 8.63911L7.65749 6.44224L6.43103 6.43667C6.34939 6.43667 6.28259 6.50161 6.28259 6.58511C6.28259 6.62036 6.29558 6.65376 6.31785 6.68159L8.73181 9.55757L6.31785 12.4317C6.29543 12.4589 6.28299 12.4929 6.28259 12.5282C6.28259 12.6098 6.34939 12.6766 6.43103 12.6766L7.65749 12.671L9.49997 10.4723L11.3425 12.6692L12.5671 12.6748C12.6487 12.6748 12.7155 12.6098 12.7155 12.5263C12.7155 12.4911 12.7025 12.4577 12.6802 12.4298L10.27 9.55571L12.684 6.67974C12.7062 6.65376 12.7174 6.61851 12.7174 6.58325Z" fill="#FF4A4A"/>
<path d="M9.5 1.20605C4.90957 1.20605 1.1875 4.92813 1.1875 9.51855C1.1875 14.109 4.90957 17.8311 9.5 17.8311C14.0904 17.8311 17.8125 14.109 17.8125 9.51855C17.8125 4.92813 14.0904 1.20605 9.5 1.20605ZM9.5 16.4209C5.68887 16.4209 2.59766 13.3297 2.59766 9.51855C2.59766 5.70742 5.68887 2.61621 9.5 2.61621C13.3111 2.61621 16.4023 5.70742 16.4023 9.51855C16.4023 13.3297 13.3111 16.4209 9.5 16.4209Z" fill="#FF4A4A"/>
</svg>
