<svg width="23" height="23" viewBox="0 0 23 23" fill="none" xmlns="http://www.w3.org/2000/svg">
<path d="M8.94281 0C13.8721 0 17.8856 4.01337 17.8856 8.94246C17.8856 11.0842 17.1344 13.047 15.8735 14.5878L23 21.7123L21.7131 23L14.5875 15.8738C12.9961 17.1784 11.0007 17.8894 8.94281 17.8849C4.01353 17.8849 0 13.8715 0 8.94246C0 4.01337 4.01353 0 8.94281 0ZM8.94281 1.78849C4.98114 1.78849 1.78856 4.98095 1.78856 8.94246C1.78856 12.904 4.98114 16.0964 8.94281 16.0964C12.9045 16.0964 16.097 12.904 16.097 8.94246C16.097 4.98095 12.9045 1.78849 8.94281 1.78849Z" fill="#755139"/>
</svg>
