<svg width="19" height="23" viewBox="0 0 19 23" fill="none" xmlns="http://www.w3.org/2000/svg">
<path d="M9.35631 10.9666C10.8634 10.9666 12.1682 10.4262 13.2347 9.3601C14.3008 8.29415 14.8415 6.98989 14.8415 5.48311C14.8415 3.97686 14.301 2.67243 13.2345 1.60613C12.1681 0.540356 10.8632 0 9.35631 0C7.84905 0 6.54438 0.540356 5.47809 1.60631C4.4118 2.67225 3.87109 3.97668 3.87109 5.48311C3.87109 6.98989 4.4118 8.29432 5.47809 9.36027C6.54472 10.426 7.84957 10.9666 9.35631 10.9666ZM6.42188 2.54963C7.24006 1.73171 8.19984 1.33413 9.35631 1.33413C10.5126 1.33413 11.4726 1.73171 12.2909 2.54963C13.1091 3.36772 13.507 4.32737 13.507 5.48311C13.507 6.63921 13.1091 7.59868 12.2909 8.41677C11.4726 9.23486 10.5126 9.63245 9.35631 9.63245C8.20019 9.63245 7.24041 9.23469 6.42188 8.41677C5.60353 7.59886 5.20565 6.63921 5.20565 5.48311C5.20565 4.32737 5.60353 3.36772 6.42188 2.54963Z" fill="#3A3A3C"/>
<path d="M18.954 17.5054C18.9232 17.0618 18.861 16.5779 18.7694 16.0669C18.677 15.5521 18.558 15.0654 18.4155 14.6206C18.2682 14.1608 18.0682 13.7068 17.8206 13.2717C17.564 12.8201 17.2624 12.4269 16.9239 12.1033C16.57 11.7648 16.1366 11.4926 15.6356 11.294C15.1362 11.0966 14.5828 10.9965 13.9909 10.9965C13.7584 10.9965 13.5336 11.0919 13.0994 11.3745C12.8321 11.5487 12.5196 11.7502 12.1707 11.973C11.8723 12.163 11.4682 12.3411 10.969 12.5022C10.482 12.6598 9.98754 12.7397 9.4993 12.7397C9.01142 12.7397 8.51694 12.6598 8.02957 12.5022C7.53092 12.3412 7.12661 12.1632 6.8288 11.9732C6.48322 11.7524 6.17047 11.5509 5.89925 11.3743C5.46541 11.0917 5.24058 10.9963 5.0081 10.9963C4.41597 10.9963 3.86276 11.0966 3.36358 11.2942C2.86284 11.4924 2.42934 11.7646 2.07507 12.1035C1.73661 12.4272 1.43498 12.8203 1.17853 13.2717C0.931287 13.7068 0.73113 14.1607 0.583792 14.6208C0.441493 15.0656 0.322476 15.5521 0.230042 16.0669C0.138303 16.5772 0.0762752 17.0613 0.0455219 17.506C0.0152898 17.9407 0 18.3932 0 18.8503C0 20.0387 0.377901 21.0008 1.1231 21.7104C1.8591 22.4105 2.83278 22.7655 4.01722 22.7655H14.9828C16.1669 22.7655 17.1406 22.4105 17.8767 21.7104C18.6221 21.0013 19 20.0389 19 18.8502C18.9998 18.3915 18.9844 17.939 18.954 17.5054ZM16.9566 20.7438C16.4702 21.2065 15.8246 21.4314 14.9826 21.4314H4.01722C3.17506 21.4314 2.52942 21.2065 2.04327 20.7439C1.56633 20.2901 1.33456 19.6705 1.33456 18.8503C1.33456 18.4238 1.34863 18.0026 1.37678 17.5982C1.40423 17.2015 1.46035 16.7657 1.54357 16.3026C1.62576 15.8453 1.73035 15.4161 1.85476 15.0276C1.97412 14.655 2.13692 14.2861 2.33882 13.9307C2.5315 13.592 2.75321 13.3014 2.99784 13.0673C3.22667 12.8482 3.51509 12.669 3.85494 12.5346C4.16925 12.4102 4.52248 12.3421 4.90594 12.3319C4.95268 12.3567 5.0359 12.4041 5.17073 12.492C5.44508 12.6707 5.7613 12.8746 6.11088 13.0978C6.50494 13.349 7.01263 13.5758 7.61918 13.7716C8.23929 13.972 8.87173 14.0738 9.49948 14.0738C10.1272 14.0738 10.7598 13.972 11.3796 13.7718C11.9867 13.5757 12.4942 13.349 12.8888 13.0975C13.2465 12.8689 13.5539 12.6709 13.8282 12.492C13.9631 12.4043 14.0463 12.3567 14.093 12.3319C14.4767 12.3421 14.8299 12.4102 15.1444 12.5346C15.484 12.669 15.7725 12.8484 16.0013 13.0673C16.2459 13.3012 16.4676 13.5918 16.6603 13.9309C16.8624 14.2861 17.0254 14.6552 17.1445 15.0274C17.2691 15.4165 17.3739 15.8455 17.4559 16.3025C17.539 16.7664 17.5952 17.2024 17.6227 17.5984V17.5987C17.651 18.0015 17.6653 18.4225 17.6654 18.8503C17.6653 19.6707 17.4335 20.2901 16.9566 20.7438Z" fill="#3A3A3C"/>
</svg>
